General
Complete name                    : A place in the sun.avi
Format                           : AVI
File size                        : 1.37 GiB
Duration                         : 1h 57mn
Overall bit rate                 : 1 682 Kbps

Video

Format                           : MPEG-4 Visual
Codec ID/Hint                    : XviD
Duration                         : 1h 57mn
Bit rate                         : 1 541 Kbps
Width                            : 718 pixels
Height                           : 576 pixels
Display aspect ratio             : 4:3
Stream size                      : 1.26 GiB (92%)
Writing library                  : XviD 1.1.2 (UTC 2006-11-01)

Audio

Format                           : MPEG Audio
Codec ID/Hint                    : MP3
Duration                         : 1h 57mn
Bit rate                         : 128 Kbps
Channel(s)                       : 2 channels
Sampling rate                    : 48.0 KHz
Stream size                      : 107 MiB (8%)


